<svg width="96" height="97" viewBox="0 0 96 97" fill="none" xmlns="http://www.w3.org/2000/svg">
<path d="M72 84.5C72 76.0131 68.6286 67.8737 62.6274 61.8726C56.6263 55.8714 48.4869 52.5 40 52.5M40 52.5C31.5131 52.5 23.3737 55.8714 17.3726 61.8726C11.3714 67.8737 8 76.0131 8 84.5M40 52.5C51.0457 52.5 60 43.5457 60 32.5C60 21.4543 51.0457 12.5 40 12.5C28.9543 12.5 20 21.4543 20 32.5C20 43.5457 28.9543 52.5 40 52.5ZM88.0002 80.4998C88.0002 67.0198 80.0002 54.4998 72.0002 48.4998C74.6299 46.5269 76.7327 43.9361 78.1225 40.9569C79.5123 37.9776 80.1462 34.7017 79.9683 31.419C79.7903 28.1363 78.8059 24.9481 77.1021 22.1366C75.3983 19.3251 73.0278 16.9769 70.2002 15.2998" stroke="#E0E0E0" stroke-width="4" stroke-linecap="round" stroke-linejoin="round"/>
</svg>
